<svg id="webDesignSVG" data-name="webDesignSVG" xmlns="http://www.w3.org/2000/svg" viewBox="0 0 103.74 77.17">
  <path d="M109.74,6.51V80.32A1.68,1.68,0,0,1,108.06,82H7.68A1.68,1.68,0,0,1,6,80.32V6.51A1.68,1.68,0,0,1,7.68,4.83H108.06A1.68,1.68,0,0,1,109.74,6.51Zm-3.36,72.13V23.91h-97V78.64Zm0-58.09V8.19h-97V20.55Z" transform="translate(-6 -4.83)"></path>
  <path d="M106.38,8.19V20.55h-97V8.19Zm-3.44,9.32V11.24a1.68,1.68,0,0,0-1.68-1.68H29.79a1.68,1.68,0,0,0-1.68,1.68v6.27a1.68,1.68,0,0,0,1.68,1.68h71.47A1.68,1.68,0,0,0,102.94,17.51ZM25.79,14.37a1.72,1.72,0,0,0-.49-1.19,1.69,1.69,0,0,0-1.19-.49,1.71,1.71,0,0,0-1.19.49,1.72,1.72,0,0,0-.49,1.19,1.71,1.71,0,0,0,.49,1.19,1.66,1.66,0,0,0,1.19.49,1.65,1.65,0,0,0,1.19-.49A1.71,1.71,0,0,0,25.79,14.37Zm-5.43,0a1.72,1.72,0,0,0-.49-1.19,1.71,1.71,0,0,0-1.19-.49A1.67,1.67,0,0,0,17,14.37a1.71,1.71,0,0,0,.49,1.19,1.68,1.68,0,0,0,1.19.49,1.66,1.66,0,0,0,1.19-.49A1.71,1.71,0,0,0,20.36,14.37Zm-5.43,0a1.67,1.67,0,0,0-1.68-1.68,1.71,1.71,0,0,0-1.19.49,1.72,1.72,0,0,0-.49,1.19,1.71,1.71,0,0,0,.49,1.19,1.66,1.66,0,0,0,1.19.49,1.68,1.68,0,0,0,1.19-.49A1.71,1.71,0,0,0,14.93,14.37Z" transform="translate(-6 -4.83)" style="fill:#888"></path>
  <path d="M102.94,11.24v6.27a1.68,1.68,0,0,1-1.68,1.68H29.79a1.68,1.68,0,0,1-1.68-1.68V11.24a1.68,1.68,0,0,1,1.68-1.68h71.47A1.68,1.68,0,0,1,102.94,11.24Zm-3.36,4.59V12.92H31.47v2.91Z" transform="translate(-6 -4.83)"></path>
  <path d="M98.11,55.27v16a1.68,1.68,0,0,1-1.68,1.68H76.71A1.68,1.68,0,0,1,75,71.26v-16a1.68,1.68,0,0,1,1.68-1.68H96.43A1.68,1.68,0,0,1,98.11,55.27ZM94.75,69.58V57H78.39V69.58Z" transform="translate(-6 -4.83)"></path>
  <path d="M96.43,29.61a1.68,1.68,0,0,1,0,3.36H76.71a1.68,1.68,0,1,1,0-3.36Z" transform="translate(-6 -4.83)"></path>
  <path d="M96.43,37.61a1.68,1.68,0,0,1,0,3.36H76.71a1.68,1.68,0,1,1,0-3.36Z" transform="translate(-6 -4.83)"></path>
  <path d="M96.43,45.6a1.68,1.68,0,0,1,0,3.36H76.71a1.68,1.68,0,1,1,0-3.36Z" transform="translate(-6 -4.83)"></path>
  <rect x="72.39" y="52.12" width="16.36" height="12.62" style="fill:#888"></rect>
  <path d="M69.41,31.29v16A1.68,1.68,0,0,1,67.73,49H48a1.68,1.68,0,0,1-1.68-1.68v-16A1.68,1.68,0,0,1,48,29.61H67.73A1.68,1.68,0,0,1,69.41,31.29ZM66.05,45.6V33H49.69V45.6Z" transform="translate(-6 -4.83)"></path>
  <path d="M67.73,53.59a1.68,1.68,0,0,1,0,3.36H48a1.68,1.68,0,0,1,0-3.36Z" transform="translate(-6 -4.83)"></path>
  <path d="M67.73,61.59a1.68,1.68,0,0,1,0,3.36H48a1.68,1.68,0,0,1,0-3.36Z" transform="translate(-6 -4.83)"></path>
  <path d="M67.73,69.58a1.68,1.68,0,0,1,0,3.36H48a1.68,1.68,0,0,1,0-3.36Z" transform="translate(-6 -4.83)"></path>
  <rect x="43.69" y="28.14" width="16.35" height="12.63" style="fill:#888"></rect>
  <path d="M39,29.61A1.68,1.68,0,1,1,39,33H19.31a1.68,1.68,0,1,1,0-3.36Z" transform="translate(-6 -4.83)"></path>
  <path d="M39,37.61A1.68,1.68,0,1,1,39,41H19.31a1.68,1.68,0,1,1,0-3.36Z" transform="translate(-6 -4.83)"></path>
  <path d="M39,45.6A1.68,1.68,0,0,1,39,49H19.31a1.68,1.68,0,0,1,0-3.36Z" transform="translate(-6 -4.83)"></path>
  <path d="M39,53.59A1.68,1.68,0,1,1,39,57H19.31a1.68,1.68,0,1,1,0-3.36Z" transform="translate(-6 -4.83)"></path>
  <path d="M39,61.59A1.68,1.68,0,1,1,39,65H19.31a1.68,1.68,0,1,1,0-3.36Z" transform="translate(-6 -4.83)"></path>
  <path d="M39,69.58a1.68,1.68,0,0,1,0,3.36H19.31a1.68,1.68,0,0,1,0-3.36Z" transform="translate(-6 -4.83)"></path>
  <path d="M25.3,13.18a1.72,1.72,0,0,1,.49,1.19,1.71,1.71,0,0,1-.49,1.19,1.65,1.65,0,0,1-1.19.49,1.66,1.66,0,0,1-1.19-.49,1.71,1.71,0,0,1-.49-1.19,1.72,1.72,0,0,1,.49-1.19,1.71,1.71,0,0,1,1.19-.49A1.69,1.69,0,0,1,25.3,13.18Z" transform="translate(-6 -4.83)"></path>
  <path d="M19.87,13.18a1.72,1.72,0,0,1,.49,1.19,1.71,1.71,0,0,1-.49,1.19,1.66,1.66,0,0,1-1.19.49,1.68,1.68,0,0,1-1.19-.49A1.71,1.71,0,0,1,17,14.37a1.67,1.67,0,0,1,1.68-1.68A1.71,1.71,0,0,1,19.87,13.18Z" transform="translate(-6 -4.83)"></path>
  <path d="M14.44,13.18a1.72,1.72,0,0,1,.49,1.19,1.71,1.71,0,0,1-.49,1.19,1.68,1.68,0,0,1-1.19.49,1.66,1.66,0,0,1-1.19-.49,1.71,1.71,0,0,1-.49-1.19,1.72,1.72,0,0,1,.49-1.19,1.71,1.71,0,0,1,1.19-.49A1.72,1.72,0,0,1,14.44,13.18Z" transform="translate(-6 -4.83)"></path>
</svg>